<?xml version="1.0" standalone="no"?>
<!DOCTYPE svg PUBLIC "-//W3C//DTD SVG 20010904//EN"
 "http://www.w3.org/TR/2001/REC-SVG-20010904/DTD/svg10.dtd">
<svg version="1.0" xmlns="http://www.w3.org/2000/svg"
 width="256.000000pt" height="256.000000pt" viewBox="0 0 256.000000 256.000000"
 preserveAspectRatio="xMidYMid meet">
<metadata>
Created by potrace 1.11, written by Peter Selinger 2001-2013
</metadata>
<g transform="translate(0.000000,256.000000) scale(0.100000,-0.100000)"
fill="#000000" stroke="none">
<path d="M1229 2279 c-16 -17 -29 -42 -29 -56 0 -28 -16 -63 -30 -63 -5 0 -11
8 -15 18 -9 28 -39 59 -65 67 -23 7 -23 7 4 -21 37 -41 47 -82 52 -224 6 -159
3 -166 -96 -201 -41 -15 -94 -35 -117 -44 -71 -30 -114 -13 -129 50 -16 68
-26 139 -31 230 -5 99 -4 115 16 154 11 25 19 47 16 49 -8 8 -65 -60 -70 -83
-3 -11 -6 -35 -7 -54 -4 -47 -19 -48 -47 -1 -13 21 -31 41 -40 44 -9 3 -23 9
-31 12 -8 3 -3 -5 12 -19 42 -41 60 -112 60 -241 1 -128 -11 -170 -62 -206
-30 -21 -97 -32 -145 -22 -15 2 -42 20 -60 38 -42 42 -68 147 -69 279 -1 79 2
94 22 123 28 38 8 46 -24 10 -43 -48 -44 -63 -44 -471 0 -583 23 -764 123
-966 70 -141 239 -313 344 -350 21 -7 52 -19 68 -26 183 -75 433 -104 605 -70
81 15 133 29 165 44 160 72 258 135 355 230 45 44 69 80 101 147 58 124 55
117 95 239 46 143 63 284 45 387 -24 137 -47 184 -128 267 l-64 66 5 65 c12
144 18 383 11 442 -6 52 -13 68 -40 95 -36 36 -68 46 -35 11 35 -38 43 -92 37
-253 -4 -82 -12 -167 -18 -188 -16 -47 -61 -87 -99 -87 -40 0 -150 49 -180 79
-25 26 -25 27 -25 206 0 152 3 185 18 212 9 18 25 37 34 42 17 10 17 10 1 11
-10 0 -32 -13 -51 -30 -35 -30 -57 -26 -57 11 0 23 -54 79 -75 79 -14 0 -13
-4 7 -20 37 -28 48 -89 48 -251 0 -156 -10 -201 -47 -218 -36 -16 -194 -14
-235 4 -61 25 -72 63 -72 257 -1 158 0 168 22 197 29 40 9 40 -29 0z m549
-657 c310 -156 367 -203 380 -319 11 -101 -48 -362 -110 -481 -22 -42 -43 -79
-47 -82 -4 -3 -21 -25 -38 -50 -17 -25 -55 -65 -84 -90 -30 -24 -55 -48 -57
-52 -2 -5 -10 -8 -18 -8 -8 0 -14 -3 -14 -7 0 -13 -135 -80 -163 -81 -4 0 -18
-7 -31 -15 -25 -17 -114 -28 -121 -16 -6 8 -45 0 -45 -10 0 -11 -303 -11 -317
1 -7 6 -26 8 -43 6 -16 -3 -30 -1 -30 4 0 4 -7 8 -16 8 -9 0 -13 -5 -9 -12 4
-7 -1 -4 -9 6 -11 14 -16 15 -16 6 0 -11 -3 -11 -12 -2 -7 7 -21 12 -33 12
-12 0 -26 5 -33 12 -7 7 -12 9 -12 5 0 -4 -10 -2 -22 5 -23 12 -39 17 -70 20
-10 1 -18 8 -18 15 0 7 -3 12 -7 12 -19 -3 -33 3 -69 32 -84 65 -114 93 -114
103 0 6 -14 20 -30 31 -16 11 -30 28 -30 38 0 10 -7 20 -15 23 -8 4 -15 12
-15 19 0 8 -6 20 -13 27 -6 7 -18 31 -26 53 -8 22 -17 42 -20 45 -9 8 -48 138
-60 200 -20 107 -29 333 -17 388 7 30 11 33 34 27 15 -4 93 -8 175 -10 84 -2
154 -8 161 -14 7 -6 15 -8 19 -5 13 13 52 -11 98 -59 27 -28 49 -55 49 -59 0
-4 5 -8 10 -8 12 0 32 -15 62 -47 12 -12 25 -20 30 -17 4 3 8 -2 8 -11 0 -9 5
-13 10 -10 6 3 10 1 10 -5 0 -7 7 -10 15 -6 8 3 15 0 15 -5 0 -6 13 -27 30
-46 16 -18 30 -38 30 -43 0 -6 5 -10 11 -10 5 0 7 6 3 13 -4 7 -3 9 2 4 5 -5
9 -12 9 -16 0 -13 54 -61 70 -61 8 0 15 -9 15 -20 0 -11 5 -20 11 -20 5 0 7
-5 3 -12 -5 -8 -2 -9 9 -5 9 3 16 3 15 -1 -3 -16 15 -40 27 -36 7 3 19 -2 28
-10 8 -8 18 -12 21 -9 4 4 19 8 34 9 43 3 137 16 142 19 3 2 21 0 40 -4 32 -6
35 -9 32 -39 -2 -18 1 -32 6 -32 5 0 29 28 53 63 43 61 44 64 43 137 -2 104
-35 176 -117 255 -101 98 -138 113 -294 119 -141 6 -229 27 -288 68 -47 31
-61 61 -47 92 20 43 54 57 149 61 140 6 375 24 381 29 12 13 70 -12 290 -122z"/>
</g>
</svg>
